<svg width="257" height="113" viewBox="0 0 257 113" fill="none" xmlns="http://www.w3.org/2000/svg">
<path d="M141.867 7C141.367 11.5 146.367 12 150.367 12C150.867 12 152.267 12.3 153.867 13.5C155.867 15 156.367 19.5 153.867 20C151.367 20.5 146.367 24 146.867 27C147.367 30 150.367 33.5 153.867 33.5H199.867C203.867 33.5 205.867 30 205.867 27C205.867 24 202.367 21.5 199.867 21.5C197.367 21.5 175.867 22 172.367 21.5C168.867 21 168.367 18.5 168.367 16.5C168.367 14.5 169.867 12 172.367 12H181.367C185.867 12 186.367 10 187.367 7C188.367 4 184.367 0 181.367 0H148.367C142.867 0 142.367 2.5 141.867 7Z" fill="#E2F6FF"/>
<path d="M7.36753 95.5H26.3675H45.3672C53.3672 95.5 49.8672 85 47.3672 85C44.8672 85 37.3672 85.5 34.3672 85C31.3672 84.5 28.8672 81 28.8672 78C28.8672 75 32.8672 72 34.3672 72H84.8672C87.8672 72 91.8672 72.5 93.3672 72C94.8672 71.5 98.3672 66.5 99.8672 63.5C101.367 60.5 97.3672 59 96.3672 59H86.3672C82.3672 59 77.8672 56.5 78.3672 52C78.8672 47.5 84.3672 46.5 86.3672 46.5H93.3672H141.867H160.367H221.367C225.867 46.5 228.367 50.5 228.367 54C228.367 57.5 223.367 59 221.367 59H183.867C182.367 59 180.867 62 180.867 63.5C180.867 65 182.867 68.5 185.367 68.5H204.867C209.867 68.5 213.867 72 213.867 77C213.867 82 205.367 82.5 203.367 82.5H182.867H160.367L150.367 97.5C145.367 105 127.367 108.5 119.367 108.5H37.3672C27.3673 108.167 6.66753 107.5 3.86753 107.5C0.367532 107.5 -0.632468 101.5 0.367532 99C1.36753 96.5 3.86753 95.5 7.36753 95.5Z" fill="#E2F6FF"/>
<ellipse cx="246.367" cy="55.5" rx="7" ry="5.5" fill="#E2F6FF"/>
<ellipse cx="200.367" cy="9.5" rx="7" ry="5.5" fill="#E2F6FF"/>
<path fill-rule="evenodd" clip-rule="evenodd" d="M154.273 54.707L153.403 55.184L155.201 59.6915L155.204 59.6989C156.917 63.618 157.867 67.9467 157.867 72.4987C157.867 90.1718 143.54 104.499 125.867 104.499C115.399 104.499 106.106 99.4734 100.267 91.7016L99.3672 90.999L98.3672 89.999L98.3926 91.1568L98.8672 92.999L99.6374 94.0752C105.286 105.017 116.703 112.499 129.867 112.499C148.645 112.499 163.867 97.2764 163.867 78.4987C163.867 69.9534 160.714 62.1432 155.509 56.1702L154.273 54.707Z" fill="#77D4FF"/>
<path d="M158.867 59.107C157.179 55.5973 154.88 52.3077 151.97 49.3977C138.107 35.5341 115.629 35.5341 101.766 49.3977C99.5055 51.6577 97.6139 54.1467 96.0908 56.7899L93.6605 61.9246C92.342 65.4123 91.5923 69.0659 91.4111 72.7422" stroke="white" stroke-width="2"/>
<path d="M116.627 38.2144C119.574 37.4224 122.671 37 125.867 37C145.473 37 161.367 52.8939 161.367 72.5C161.367 80.318 158.84 87.5458 154.558 93.411M90.3672 72.5C90.3672 58.0938 98.9484 45.6918 111.278 40.1267M97.1765 93.411C103.633 102.254 114.079 108 125.867 108C131.837 108 137.464 106.526 142.401 103.923M152.182 96.3288C150.688 97.9774 149.041 99.485 147.264 100.829" stroke="#1AACFF" stroke-width="2"/>
<circle cx="125.867" cy="72.5" r="32.5" fill="#D3F3FE"/>
<path d="M100.467 24C100.467 27.3689 97.7361 30.1 94.3672 30.1C90.9983 30.1 88.2672 27.3689 88.2672 24C88.2672 20.6311 90.9983 17.9 94.3672 17.9C97.7361 17.9 100.467 20.6311 100.467 24Z" stroke="#1AACFF" stroke-width="1.8"/>
<path d="M188.617 93.5C188.617 96.1234 186.491 98.25 183.867 98.25C181.244 98.25 179.117 96.1234 179.117 93.5C179.117 90.8766 181.244 88.75 183.867 88.75C186.491 88.75 188.617 90.8766 188.617 93.5Z" stroke="#77D4FF" stroke-width="1.5"/>
<rect x="251.367" y="37" width="1" height="9" fill="#1AACFF"/>
<rect x="256.367" y="41" width="1" height="9" transform="rotate(90 256.367 41)" fill="#1AACFF"/>
<path d="M124 52V76.5" stroke="white" stroke-width="2"/>
<path d="M124 84V91" stroke="white" stroke-width="2"/>
<path d="M126 54V78.5" stroke="#1AACFF" stroke-width="2"/>
<path d="M126 86V93" stroke="#1AACFF" stroke-width="2"/>
</svg>
