<svg width="13" height="13" viewBox="0 0 13 13" fill="none" xmlns="http://www.w3.org/2000/svg">
<path d="M12.8462 0.15381C12.6411 -0.05127 12.3086 -0.05127 12.1036 0.15381L0.15381 12.1035C-0.05127 12.3086 -0.05127 12.6411 0.15381 12.8462C0.256338 12.9488 0.390756 13 0.525148 13C0.659541 13 0.793933 12.9487 0.896486 12.8462L12.8462 0.896435C13.0513 0.691381 13.0513 0.35889 12.8462 0.15381Z" fill="#999999"/>
<path d="M12.8462 12.1035L0.896435 0.15381C0.691381 -0.05127 0.358865 -0.05127 0.15381 0.15381C-0.05127 0.358865 -0.05127 0.691355 0.15381 0.896435L12.1036 12.8462C12.2061 12.9487 12.3405 13 12.4749 13C12.6093 13 12.7437 12.9487 12.8462 12.8462C13.0512 12.6411 13.0512 12.3086 12.8462 12.1035Z" fill="#999999"/>
</svg>
